<?xml version="1.0" encoding="iso-8859-1"?>
<!-- Generator: Adobe Illustrator 19.0.0, SVG Export Plug-In . SVG Version: 6.00 Build 0)  -->
<svg version="1.1" id="Capa_1" xmlns="http://www.w3.org/2000/svg" xmlns:xlink="http://www.w3.org/1999/xlink" x="0px" y="0px"
	 viewBox="0 0 512 512" style="enable-background:new 0 0 512 512;" xml:space="preserve">
<g>
	<g>
		<path d="M256,0C114.848,0,0,114.848,0,256s114.848,256,256,256s256-114.848,256-256S397.152,0,256,0z M160,160
			c17.632,0,32,14.368,32,32s-14.368,32-32,32s-32-14.368-32-32S142.368,160,160,160z M380.16,410.4
			c-3.04,3.584-7.488,5.6-12.16,5.6H144c-4.672,0-9.12-2.016-12.128-5.6c-3.04-3.52-4.384-8.256-3.68-12.832
			C138.016,334.048,191.776,288,256,288s117.984,46.048,127.808,109.568C384.544,402.144,383.2,406.88,380.16,410.4z M352,224
			c-17.632,0-32-14.368-32-32s14.368-32,32-32c17.632,0,32,14.368,32,32S369.632,224,352,224z"/>
	</g>
</g>
<g>
</g>
<g>
</g>
<g>
</g>
<g>
</g>
<g>
</g>
<g>
</g>
<g>
</g>
<g>
</g>
<g>
</g>
<g>
</g>
<g>
</g>
<g>
</g>
<g>
</g>
<g>
</g>
<g>
</g>
</svg>
