<?xml version="1.0" encoding="iso-8859-1"?>
<!-- Generator: Adobe Illustrator 19.0.0, SVG Export Plug-In . SVG Version: 6.00 Build 0)  -->
<svg version="1.1" id="Capa_1" xmlns="http://www.w3.org/2000/svg" xmlns:xlink="http://www.w3.org/1999/xlink" x="0px" y="0px"
	 viewBox="0 0 512 512" style="enable-background:new 0 0 512 512;" xml:space="preserve">
<g>
	<g>
		<path d="M256,0C114.848,0,0,114.848,0,256s114.848,256,256,256s256-114.848,256-256S397.152,0,256,0z M128,192
			c0-17.632,14.368-32,32-32s32,14.368,32,32s-14.368,32-32,32S128,209.632,128,192z M336,384H176c-8.832,0-16-7.168-16-16
			c0-8.832,7.168-16,16-16h160c8.832,0,16,7.168,16,16C352,376.832,344.832,384,336,384z M352,224c-17.632,0-32-14.368-32-32
			s14.368-32,32-32c17.632,0,32,14.368,32,32S369.632,224,352,224z"/>
	</g>
</g>
<g>
</g>
<g>
</g>
<g>
</g>
<g>
</g>
<g>
</g>
<g>
</g>
<g>
</g>
<g>
</g>
<g>
</g>
<g>
</g>
<g>
</g>
<g>
</g>
<g>
</g>
<g>
</g>
<g>
</g>
</svg>
